<?xml version="1.0" encoding="utf-8"?>
<!-- Generator: Adobe Illustrator 19.0.0, SVG Export Plug-In . SVG Version: 6.00 Build 0)  -->
<svg version="1.1" id="Capa_1" xmlns="http://www.w3.org/2000/svg" xmlns:xlink="http://www.w3.org/1999/xlink" x="0px" y="0px"
	 viewBox="-233 325 144 144" style="enable-background:new -233 325 144 144;" xml:space="preserve">
<style type="text/css">
	.st0{fill:#FFFFFF;}
	.st1{fill:#FF9600;}
	.st2{fill:#020202;}
</style>
<path class="st0" d="M-233,325h144v144h-144V325z"/>
<path class="st1" d="M-232.1,334c-0.3-5.2,5.5-8.3,10.1-8c32.7,0,65.3,0,98,0c8.8-0.4,17.6,0.4,26.5-0.3c0,0.3,0,0.9,0,1.2l-0.1,0.2
	c-40.5-0.3-80.9,0-121.4-0.1c-3.5-0.2-7.2,0.7-9.5,3.5c-2.2,2.3-2.5,5.5-2.5,8.5c0.1,38.7,0,77.3,0,116c-0.4,4.6,2.6,9.2,7,10.5
	c2.9,0.7,6,0.5,8.9,0.5c38-0.1,76.1,0.1,114.1-0.1c5.7,0.2,10.4-5.3,9.9-10.9c0-39,0-78.1,0-117.1c0.3-4.3-2.1-8.4-6.1-10
	c0-0.2-0.1-0.5-0.1-0.7c1.3-1.6,3,0,4.3,0.9c1.9,1.4,3.4,3.5,3,5.9c0,42.4,0,84.8,0,127.1c-0.3,3.3-3.6,6.4-7,5.9
	c-42.7,0-85.3,0-128,0c-3.5,0.5-6.8-2.6-7.1-6C-232,418.7-232,376.3-232.1,334z"/>
<path d="M-228.5,330.5c2.3-2.8,6-3.7,9.5-3.5c40.5,0.1,80.9-0.1,121.4,0.1l0.1-0.2l0.3,0.3c0,0.2,0.1,0.5,0.1,0.7
	c4,1.6,6.4,5.8,6.1,10c0,39,0,78.1,0,117.1c0.6,5.6-4.2,11.1-9.9,10.9c-38,0.1-76.1,0-114.1,0.1c-3,0-6,0.2-8.9-0.5
	c-4.5-1.3-7.4-5.9-7-10.5c0-38.7,0-77.4,0-116C-231.1,336-230.7,332.7-228.5,330.5z"/>
<path class="st1" d="M-223.6,329.5c1.5-0.5,3.1-0.4,4.6-0.5c39.3,0.1,78.7-0.1,118,0.1c4.7-0.1,8.5,4.4,8,8.9c0,39,0,78,0,117
	c0.5,4.6-3.3,9.1-7.9,9c-39.7,0.1-79.4,0-119.1,0.1c-4.6,0.5-9.1-3.3-8.9-8c-0.1-39.3,0-78.7,0-118
	C-229.3,334.4-227.2,330.6-223.6,329.5z"/>
<path d="M-193.3,342.7c2.5-2,0.7-5.4,2-8c0.6,2.6-0.6,6,1.8,7.9c1.9,1.6,1,4.2,1.4,6.3c3.6,2.5,2.1,7.6,2.6,11.3
	c0.6,0.4,1.9,1.2,2.6,1.6c-3.2,3.3-1.5,8.1-1.9,12.2c0.7,0,2.2-0.1,3-0.1c2.2-5.1,8.1-6.4,13.1-7.3c12.2-1.9,24.8-1.7,36.9,0.4
	c3.9,0.9,8.3,1.8,11.3,4.7c2.7,4.1,2.6,9.3,3.5,14c1.2,0.9,3.3,1.4,3.5,3.1c0.4,3.1,0.3,6.2,0.2,9.2c0.1,2-1.9,3.1-2.6,4.8
	c-0.2,11.4,0.2,22.8-0.2,34.2c0.3,3.1-3.3,2.6-5.4,2.8c-0.2,2.6,0.4,5.5-0.8,7.9c-1.9,2.4-5.3,1.4-7.7,0.5c-1.1-2.7-1.1-5.7-1-8.6
	c-12.4,0.1-24.7-0.1-37.1,0.1c-0.4,3,1.1,7.1-2,9c-2.4,0.9-5.8,0.8-7.1-1.8c-0.4-2.4-0.2-4.8-0.3-7.2c-1.6,0-3.1,0-4.7,0
	c-0.5-0.4-1.6-1.2-2.1-1.7c-0.1-6.7,0-13.3-0.2-20c-0.1,6.8-0.4,13.5,0.1,20.3c-7.6,0-15.3,0.2-22.9-0.1c-0.1-5.8-0.3-11.5-0.2-17.3
	c0.4-13.2-0.4-26.4,0.2-39.5c2.2-0.1,4.5-0.1,6.7-0.2c0-2.4,0-4.8,0-7.2c0.7-0.1,2.1-0.3,2.9-0.3c0-3.6,1.3-8-1.3-11
	c-0.8-1.6,1.4-1.9,2.2-2.9c-0.1-3.4-1.2-7.5,1.3-10.3C-193.4,347.8-195.1,344.6-193.3,342.7z"/>
<path class="st0" d="M-167.9,371.1c11.3-0.3,22.6,0,33.9-0.1c2.4-0.4,5.1,1.4,5,4c0.1,2-1.6,3.1-3,4.2c-12-0.5-24,0-36-0.3
	C-172,378.5-172.1,371.5-167.9,371.1z"/>
<path class="st0" d="M-176,381c17,0,34,0,51,0c0,9.7,0,19.3,0,29c-17,0-34,0-51,0C-176,400.3-176,390.7-176,381z"/>
<path class="st0" d="M-174.3,424.9c2.1-2.5,5.7-4.5,8.8-2.2c4.7,2.6,3,10.6-2.4,11c-2.9,0.7-5-1.3-6.6-3.3
	C-174.5,428.5-174.4,426.7-174.3,424.9z"/>
<path class="st0" d="M-135.6,422.5c3.8-3,9.9,0.8,9.2,5.5c0,4.3-5.6,7.2-9.1,4.6C-139.1,430.4-139.3,424.7-135.6,422.5z"/>
<rect x="-176.9" y="420.1" class="st2" width="18.4" height="15.1"/>
<path class="st0" d="M-172.6,422.5c3.6-3,9.6,0.8,8.9,5.5c0,4.3-5.4,7.2-8.8,4.6C-176,430.4-176.2,424.7-172.6,422.5z"/>
<rect x="-125.7" y="325" class="st0" width="36.7" height="0.9"/>
<ellipse class="st1" cx="-97.2" cy="326.6" rx="1.6" ry="0.7"/>
<path class="st1" d="M-95.3,326.6c0,0.2,0.9,0.7,0.5,0.7s-2-0.5-2-0.7c0-0.2,0.4-0.5,0.8-0.3C-87.9,329.8-95.3,331.8-95.3,326.6z"/>
<rect x="-227" y="326.9" class="st1" width="131.4" height="0.4"/>
<rect x="-225.7" y="326.3" class="st1" width="129.3" height="1"/>
<path d="M-96.6,327.8c5.6,4.9-0.5,0.5-1,0.5s-1-0.2-1-0.5s0.5-0.5,1-0.5S-96.8,327.6-96.6,327.8z"/>
<ellipse transform="matrix(0.9563 0.2924 -0.2924 0.9563 91.4355 42.6026)" class="st1" cx="-96.8" cy="327.2" rx="1.5" ry="0.5"/>
<ellipse class="st1" cx="-99" cy="326.8" rx="3" ry="0.5"/>
<ellipse class="st1" cx="-95.8" cy="327.4" rx="1.1" ry="0.6"/>
<ellipse class="st1" cx="-97.9" cy="326.9" rx="1.5" ry="0.4"/>
</svg>
