<?xml version="1.0" encoding="UTF-8" standalone="no"?>
<!-- Generator: Adobe Illustrator 19.0.0, SVG Export Plug-In . SVG Version: 6.00 Build 0)  -->

<svg
   xmlns:dc="http://purl.org/dc/elements/1.1/"
   xmlns:cc="http://creativecommons.org/ns#"
   xmlns:rdf="http://www.w3.org/1999/02/22-rdf-syntax-ns#"
   xmlns:svg="http://www.w3.org/2000/svg"
   xmlns="http://www.w3.org/2000/svg"
   xmlns:sodipodi="http://sodipodi.sourceforge.net/DTD/sodipodi-0.dtd"
   xmlns:inkscape="http://www.inkscape.org/namespaces/inkscape"
   version="1.1"
   id="Capa_1"
   x="0px"
   y="0px"
   viewBox="-233 325 144 144"
   style="enable-background:new -233 325 144 144;"
   xml:space="preserve"
   inkscape:version="0.91 r13725"
   sodipodi:docname="SevillaBusIcon (1) (2).svg"><metadata
     id="metadata51"><rdf:RDF><cc:Work
         rdf:about=""><dc:format>image/svg+xml</dc:format><dc:type
           rdf:resource="http://purl.org/dc/dcmitype/StillImage" /></cc:Work></rdf:RDF></metadata><defs
     id="defs49" /><sodipodi:namedview
     pagecolor="#ffffff"
     bordercolor="#666666"
     borderopacity="1"
     objecttolerance="10"
     gridtolerance="10"
     guidetolerance="10"
     inkscape:pageopacity="0"
     inkscape:pageshadow="2"
     inkscape:window-width="1366"
     inkscape:window-height="741"
     id="namedview47"
     showgrid="false"
     inkscape:zoom="9.2709556"
     inkscape:cx="54.206565"
     inkscape:cy="78.047455"
     inkscape:window-x="0"
     inkscape:window-y="0"
     inkscape:window-maximized="1"
     inkscape:current-layer="Capa_1" /><style
     type="text/css"
     id="style3">
	.st0{fill:#FFFFFF;}
	.st1{fill:#FF9600;}
	.st2{fill:#020202;}
</style><path
     class="st0"
     d="M-233,325h144v144h-144V325z"
     id="path5" /><path
     class="st1"
     d="m -232.1,334 c -0.3,-5.2 5.5,-8.3 10.1,-8 l 98,0 c 8.7191,0.0315 17.4382,-0.0584 26.648312,0.0236 l 1.011223,0.4854 L -97.6,327.1 c -40.5,-0.3 -80.9,0 -121.4,-0.1 -3.5,-0.2 -7.2,0.7 -9.5,3.5 -2.2,2.3 -2.5,5.5 -2.5,8.5 0.1,38.7 0,77.3 0,116 -0.4,4.6 2.6,9.2 7,10.5 2.9,0.7 6,0.5 8.9,0.5 38,-0.1 76.1,0.1 114.1,-0.1 5.7,0.2 10.4,-5.3 9.9,-10.9 l 0,-117.1 c 0.3,-4.3 -2.1,-8.4 -6.1,-10 0,-0.2 -1.387623,-0.70898 -1.387623,-0.90898 1.3,-1.6 4.287623,0.20898 5.587623,1.10898 1.9,1.4 3.4,3.5 3,5.9 l 0,127.1 c -0.3,3.3 -3.6,6.4 -7,5.9 l -128,0 c -3.5,0.5 -6.8,-2.6 -7.1,-6 0.1,-42.3 0.1,-84.7 0,-127 z"
     id="path7"
     inkscape:connector-curvature="0"
     style="fill:#ff9600"
     sodipodi:nodetypes="cccccccccccccccccccccccc" /><path
     d="m -228.5,330.5 c 2.3,-2.8 6,-3.7 9.5,-3.5 40.5,0.1 80.9,-0.1 121.4,0.1 l 0.1,-0.2 -4.17634,0.3 c 3.363995,0.0112 2.628052,-0.37639 4.360613,0.43034 4,1.6 6.615727,6.06966 6.315727,10.26966 l 0,117.1 c 0.6,5.6 -4.2,11.1 -9.9,10.9 -38,0.1 -76.1,0 -114.1,0.1 -3,0 -6,0.2 -8.9,-0.5 -4.5,-1.3 -7.4,-5.9 -7,-10.5 l 0,-116 c -0.2,-3 0.2,-6.3 2.4,-8.5 z"
     id="path9"
     inkscape:connector-curvature="0"
     sodipodi:nodetypes="cccccccccccccc" /><path
     class="st1"
     d="M-223.6,329.5c1.5-0.5,3.1-0.4,4.6-0.5c39.3,0.1,78.7-0.1,118,0.1c4.7-0.1,8.5,4.4,8,8.9c0,39,0,78,0,117  c0.5,4.6-3.3,9.1-7.9,9c-39.7,0.1-79.4,0-119.1,0.1c-4.6,0.5-9.1-3.3-8.9-8c-0.1-39.3,0-78.7,0-118  C-229.3,334.4-227.2,330.6-223.6,329.5z"
     id="path11" /><path
     d="m -193.3,342.7 c 2.34746,-2.09534 0.7,-5.4 2,-8 0.90508,2.61907 -0.27585,6.28602 1.8,7.9 1.9,1.6 0.6899,4.64494 1.4,6.3 3.24944,3.36291 2.1,7.6 2.6,11.3 0.6,0.4 3.34915,0.36102 2.6,1.6 -3.2,3.3 -1.5,8.1 -1.9,12.2 0.7,0 2.2,-0.1 3,-0.1 2.2,-5.1 8.1,-6.4 13.1,-7.3 12.2,-1.9 24.8,-1.7 36.9,0.4 3.9,0.9 8.3,1.8 11.3,4.7 2.7,4.1 2.6,9.3 3.5,14 1.2,0.9 3.3,1.4 3.5,3.1 0.4,3.1 0.3,6.2 0.2,9.2 0.1,2 -1.9,3.1 -2.6,4.8 -0.2,11.4 0.2,22.8 -0.2,34.2 0.3,3.1 -3.3,2.6 -5.4,2.8 -0.2,2.6 0.4,5.5 -0.8,7.9 -1.9,2.4 -6.67288,1.59068 -7.7,0.5 -1.20786,-1.29777 -1.1,-5.7 -1,-8.6 -12.4,0.1 -24.7,-0.1 -37.1,0.1 -0.0186,3.5339 0.48983,7.40508 -2,9 -2.4,0.9 -5.8,0.8 -7.1,-1.8 -0.4,-2.4 -0.2,-4.8 -0.3,-7.2 l -4.7,0 c -4.79815,-3.28266 1.57433,-1.3778 -2.21907,-1.35233 -7.6,0 -15.28093,0.15233 -22.88093,-0.14767 -0.1,-5.8 -0.3,-11.5 -0.2,-17.3 0.4,-13.2 -0.4,-26.4 0.2,-39.5 2.2,-0.1 4.5,-0.1 6.7,-0.2 l 0,-7.2 c 0.7,-0.1 2.1,-0.3 2.9,-0.3 0,-3.6 1.3,-8 -1.3,-11 -0.8,-1.6 1.4,-1.9 2.2,-2.9 -0.1,-3.4 -1.2,-7.5 1.3,-10.3 2.1,-1.7 0.4,-4.9 2.2,-6.8 z"
     id="path13"
     inkscape:connector-curvature="0"
     sodipodi:nodetypes="cccccccccccccccccccccccccccccccccccc" /><path
     class="st0"
     d="m -167.9,371.1 c 11.3,-0.3 22.6,0 33.9,-0.1 2.4,-0.4 5.1,1.4 5,4 0.1,2 -1.4382,3.96291 -3,4.2 -12,0.0393 -24,0 -36,-0.3 -4,-0.4 -4.1,-7.4 0.1,-7.8 z"
     id="path15"
     inkscape:connector-curvature="0"
     style="fill:#ffffff"
     sodipodi:nodetypes="cccccc" /><path
     class="st0"
     d="M-176,381c17,0,34,0,51,0c0,9.7,0,19.3,0,29c-17,0-34,0-51,0C-176,400.3-176,390.7-176,381z"
     id="path17" /><path
     class="st0"
     d="M-174.3,424.9c2.1-2.5,5.7-4.5,8.8-2.2c4.7,2.6,3,10.6-2.4,11c-2.9,0.7-5-1.3-6.6-3.3  C-174.5,428.5-174.4,426.7-174.3,424.9z"
     id="path19" /><path
     class="st0"
     d="M-135.6,422.5c3.8-3,9.9,0.8,9.2,5.5c0,4.3-5.6,7.2-9.1,4.6C-139.1,430.4-139.3,424.7-135.6,422.5z"
     id="path21" /><rect
     x="-176.9"
     y="420.1"
     class="st2"
     width="18.4"
     height="15.1"
     id="rect23" /><path
     class="st0"
     d="M-172.6,422.5c3.6-3,9.6,0.8,8.9,5.5c0,4.3-5.4,7.2-8.8,4.6C-176,430.4-176.2,424.7-172.6,422.5z"
     id="path25" /><rect
     x="-125.7"
     y="325"
     class="st0"
     width="36.7"
     height="0.9"
     id="rect27" /><rect
     x="-227"
     y="326.9"
     class="st1"
     width="131.4"
     height="0.4"
     id="rect33" /><rect
     x="-225.7"
     y="326.29999"
     class="st1"
     width="129.3"
     height="1"
     id="rect35"
     ry="0.5"
     style="fill:#ff9600" /><path
     sodipodi:nodetypes="ccccccssssssc"
     inkscape:connector-curvature="0"
     id="path4147"
     d="m -181.71057,373.94455 c -2.75824,4.1 -2.65608,9.3 -3.57549,14 -1.22588,0.9 -3.37119,1.4 -3.57551,3.1 -0.40862,3.1 -0.30647,6.2 -0.20432,9.2 -0.1021,2 1.94101,3.1 2.6561,4.8 0.20432,11.4 2.00755,21.96102 2.41618,33.36102 -0.30822,0.39836 -0.64292,0.26819 -0.69653,-0.98977 -0.45025,-10.56498 -1.34202,-17.67639 -2.43557,-32.01011 -0.12957,-1.6983 -2.56745,-2.33897 -2.52882,-4.92552 0.0475,-3.17929 0.009,-6.61244 0.19445,-9.47968 0.14908,-2.30961 3.52684,-2.96692 3.76075,-3.63626 0.78048,-2.23334 0.72639,-4.75629 1.15087,-6.53964 1.00663,-4.22909 1.60952,-7.47127 2.83789,-6.88004 z"
     style="fill:#ff9600;fill-opacity:1" /></svg>